<svg width="70" height="70" viewBox="0 0 70 70" fill="none" xmlns="http://www.w3.org/2000/svg">
<path d="M27.3175 31.1558C30.0543 35.9639 34.0361 39.9457 38.8442 42.6825L41.4225 39.0717C41.8371 38.4911 42.4502 38.0826 43.1457 37.9235C43.8412 37.7644 44.5709 37.8657 45.1967 38.2083C49.3218 40.4627 53.8773 41.8185 58.5638 42.1867C59.2952 42.2446 59.9779 42.5761 60.4758 43.1151C60.9736 43.6541 61.2501 44.3609 61.25 45.0946V58.1088C61.2502 58.8309 60.9824 59.5274 60.4986 60.0635C60.0147 60.5996 59.3492 60.9372 58.6308 61.0108C57.085 61.1712 55.5275 61.25 53.9583 61.25C28.9917 61.25 8.75 41.0083 8.75 16.0417C8.75 14.4725 8.82875 12.915 8.98917 11.3692C9.06283 10.6508 9.40037 9.98527 9.93647 9.50143C10.4726 9.0176 11.1691 8.74984 11.8913 8.75H24.9054C25.6391 8.74991 26.3459 9.02636 26.8849 9.52423C27.4239 10.0221 27.7554 10.7048 27.8133 11.4362C28.1815 16.1227 29.5373 20.6782 31.7917 24.8033C32.1343 25.4291 32.2356 26.1588 32.0765 26.8543C31.9174 27.5498 31.5089 28.1629 30.9283 28.5775L27.3175 31.1558ZM19.9617 29.2396L25.5033 25.2817C23.9306 21.8869 22.8531 18.2841 22.3038 14.5833H14.6125C14.595 15.0675 14.5862 15.5546 14.5862 16.0417C14.5833 37.7883 32.2117 55.4167 53.9583 55.4167C54.4454 55.4167 54.9325 55.4079 55.4167 55.3875V47.6963C51.7159 47.1469 48.1131 46.0694 44.7183 44.4967L40.7604 50.0383C39.1669 49.4192 37.6192 48.6882 36.1288 47.8508L35.9596 47.7546C30.2388 44.4988 25.5012 39.7612 22.2454 34.0404L22.1492 33.8713C21.3118 32.3808 20.5808 30.8331 19.9617 29.2396Z" fill="black"/>
</svg>
