<svg width="64" height="64" viewBox="0 0 64 64" fill="none" xmlns="http://www.w3.org/2000/svg">
<path d="M5.3335 13.3333L24.0002 5.33334L40.0002 13.3333L56.8082 6.13067C57.0111 6.04369 57.2324 6.00845 57.4523 6.02812C57.6721 6.04778 57.8837 6.12173 58.0679 6.24332C58.2522 6.36492 58.4033 6.53036 58.5079 6.7248C58.6124 6.91923 58.667 7.13658 58.6668 7.35734V50.6667L40.0002 58.6667L24.0002 50.6667L7.19216 57.8693C6.98927 57.9563 6.76795 57.9916 6.54807 57.9719C6.32819 57.9522 6.11664 57.8783 5.9324 57.7567C5.74815 57.6351 5.59698 57.4696 5.49245 57.2752C5.38792 57.0808 5.3333 56.8634 5.3335 56.6427V13.3333ZM40.0002 52.704V19.136L39.8268 19.2107L24.0002 11.296V44.864L24.1735 44.7893L40.0002 52.704Z" fill="black"/>
</svg>
