<svg width="57" height="57" viewBox="0 0 57 57" fill="none" xmlns="http://www.w3.org/2000/svg">
<path d="M7.125 7.125H49.875C50.5049 7.125 51.109 7.37522 51.5544 7.82062C51.9998 8.26602 52.25 8.87011 52.25 9.5V47.5C52.25 48.1299 51.9998 48.734 51.5544 49.1794C51.109 49.6248 50.5049 49.875 49.875 49.875H7.125C6.49511 49.875 5.89102 49.6248 5.44562 49.1794C5.00022 48.734 4.75 48.1299 4.75 47.5V9.5C4.75 8.87011 5.00022 8.26602 5.44562 7.82062C5.89102 7.37522 6.49511 7.125 7.125 7.125ZM47.5 17.1902L28.671 34.0528L9.5 17.138V45.125H47.5V17.1902ZM10.7136 11.875L28.6449 27.6972L46.3173 11.875H10.7136Z" fill="black"/>
</svg>
